<mxfile host="app.diagrams.net" modified="2024-03-18T20:48:34.989Z" agent="Mozilla/5.0 (Windows NT 10.0; Win64; x64) AppleWebKit/537.36 (KHTML, like Gecko) Chrome/122.0.0.0 Safari/537.36" etag="5DrQ-_g6TlYq0zjFbkcd" version="24.0.5" type="device">
  <diagram name="PÃ¡gina-1" id="eO6-vMkpp0oPFC7tOvSB">
    <mxGraphModel dx="4259" dy="3225" grid="1" gridSize="10" guides="1" tooltips="1" connect="1" arrows="1" fold="1" page="1" pageScale="1" pageWidth="827" pageHeight="1169" math="0" shadow="0">
      <root>
        <mxCell id="0" />
        <mxCell id="1" parent="0" />
        <mxCell id="agDyX-ZiO_sCVZXWrItU-26" value="" style="rounded=0;whiteSpace=wrap;html=1;fillStyle=dashed;strokeWidth=6;fillColor=#d0cee2;strokeColor=#56517e;" parent="1" vertex="1">
          <mxGeometry x="-420" y="1061" width="1740" height="390" as="geometry" />
        </mxCell>
        <mxCell id="agDyX-ZiO_sCVZXWrItU-20" value="" style="rounded=0;whiteSpace=wrap;html=1;fillStyle=dashed;strokeWidth=6;fillColor=#b0e3e6;strokeColor=#0e8088;" parent="1" vertex="1">
          <mxGeometry x="-420" y="645" width="1740" height="390" as="geometry" />
        </mxCell>
        <mxCell id="agDyX-ZiO_sCVZXWrItU-5" value="" style="rounded=0;whiteSpace=wrap;html=1;fillStyle=dashed;strokeWidth=6;fillColor=#dae8fc;strokeColor=#6c8ebf;" parent="1" vertex="1">
          <mxGeometry x="-420" y="230" width="1740" height="390" as="geometry" />
        </mxCell>
        <mxCell id="rl2Ivr2va-oDCX-Vl3rw-1" value="&lt;font style=&quot;font-size: 55px;&quot;&gt;&lt;font face=&quot;Comic Sans MS&quot; style=&quot;font-size: 55px;&quot;&gt;&lt;font style=&quot;font-size: 55px;&quot;&gt;&lt;font style=&quot;font-size: 55px;&quot;&gt;CommonMain&lt;/font&gt;&lt;br&gt;&lt;/font&gt;&lt;font style=&quot;font-size: 55px; font-weight: bold;&quot; color=&quot;#ff0080&quot;&gt;&lt;i style=&quot;&quot;&gt;expect&lt;/i&gt;&lt;/font&gt;&lt;/font&gt;&lt;br&gt;&lt;/font&gt;" style="rounded=1;whiteSpace=wrap;html=1;fillColor=#FFD966;strokeColor=#000000;strokeWidth=2;arcSize=20;fillStyle=solid;shadow=0;sketch=1;curveFitting=1;jiggle=2;" parent="1" vertex="1">
          <mxGeometry x="124" y="280" width="580" height="270" as="geometry" />
        </mxCell>
        <mxCell id="rl2Ivr2va-oDCX-Vl3rw-3" value="&lt;font style=&quot;font-size: 40px;&quot;&gt;&lt;font face=&quot;Comic Sans MS&quot;&gt;JVMMain&lt;br&gt;&lt;b style=&quot;color: rgb(255, 0, 128);&quot;&gt;&lt;i&gt;actual&lt;/i&gt;&lt;/b&gt;&lt;/font&gt;&lt;br&gt;&lt;/font&gt;" style="rounded=1;whiteSpace=wrap;html=1;fillColor=#FFD966;strokeColor=#36393D;strokeWidth=2;arcSize=20;fillStyle=solid;shadow=0;sketch=1;curveFitting=1;jiggle=2;" parent="1" vertex="1">
          <mxGeometry x="870" y="1122" width="280" height="200" as="geometry" />
        </mxCell>
        <mxCell id="rl2Ivr2va-oDCX-Vl3rw-5" value="&lt;font style=&quot;font-size: 40px;&quot;&gt;&lt;font face=&quot;Comic Sans MS&quot;&gt;&lt;font style=&quot;&quot; data-font-src=&quot;https://fonts.googleapis.com/css?family=Kalam&quot;&gt;JsMain&lt;br&gt;&lt;/font&gt;&lt;font style=&quot;&quot; color=&quot;#ff0080&quot;&gt;&lt;b style=&quot;&quot;&gt;&lt;i style=&quot;&quot;&gt;actual&lt;/i&gt;&lt;/b&gt;&lt;/font&gt;&lt;/font&gt;&lt;br&gt;&lt;/font&gt;" style="rounded=1;whiteSpace=wrap;html=1;fillColor=#FFD966;strokeColor=#000000;strokeWidth=2;arcSize=20;fillStyle=solid;shadow=0;sketch=1;curveFitting=1;jiggle=2;" parent="1" vertex="1">
          <mxGeometry x="-354" y="1122" width="280" height="200" as="geometry" />
        </mxCell>
        <mxCell id="rl2Ivr2va-oDCX-Vl3rw-7" value="&lt;font style=&quot;&quot;&gt;&lt;font style=&quot;font-size: 35px;&quot; face=&quot;Comic Sans MS&quot;&gt;JVM&lt;/font&gt;&lt;br&gt;&lt;/font&gt;" style="rounded=1;whiteSpace=wrap;html=1;fillColor=#FFB366;strokeColor=#36393D;strokeWidth=2;arcSize=20;fillStyle=solid;shadow=0;sketch=1;curveFitting=1;jiggle=2;" parent="1" vertex="1">
          <mxGeometry x="850" y="1292" width="120" height="70" as="geometry" />
        </mxCell>
        <mxCell id="rl2Ivr2va-oDCX-Vl3rw-9" value="&lt;font style=&quot;&quot;&gt;&lt;font style=&quot;font-size: 35px;&quot; face=&quot;Comic Sans MS&quot;&gt;JS&lt;/font&gt;&lt;br&gt;&lt;/font&gt;" style="rounded=1;whiteSpace=wrap;html=1;fillColor=#FFB366;strokeColor=#36393D;strokeWidth=2;arcSize=20;fillStyle=solid;shadow=0;sketch=1;curveFitting=1;jiggle=2;" parent="1" vertex="1">
          <mxGeometry x="-380" y="1292" width="120" height="70" as="geometry" />
        </mxCell>
        <mxCell id="rl2Ivr2va-oDCX-Vl3rw-10" value="&lt;font style=&quot;&quot;&gt;&lt;font style=&quot;font-size: 40px;&quot; face=&quot;Comic Sans MS&quot;&gt;JVM&lt;/font&gt;&lt;br&gt;&lt;/font&gt;" style="rounded=1;whiteSpace=wrap;html=1;fillColor=#FFB366;strokeColor=#36393D;strokeWidth=2;arcSize=20;fillStyle=solid;shadow=0;sketch=1;curveFitting=1;jiggle=2;" parent="1" vertex="1">
          <mxGeometry x="463" y="-160" width="190" height="80" as="geometry" />
        </mxCell>
        <mxCell id="rl2Ivr2va-oDCX-Vl3rw-12" value="&lt;font style=&quot;&quot;&gt;&lt;font style=&quot;font-size: 40px;&quot; face=&quot;Comic Sans MS&quot;&gt;JS&lt;/font&gt;&lt;br&gt;&lt;/font&gt;" style="rounded=1;whiteSpace=wrap;html=1;fillColor=#FFB366;strokeColor=#36393D;strokeWidth=2;arcSize=20;fillStyle=solid;shadow=0;sketch=1;curveFitting=1;jiggle=2;" parent="1" vertex="1">
          <mxGeometry x="174" y="-160" width="190" height="80" as="geometry" />
        </mxCell>
        <mxCell id="rl2Ivr2va-oDCX-Vl3rw-13" value="&lt;font style=&quot;font-size: 40px;&quot;&gt;&lt;font face=&quot;Comic Sans MS&quot;&gt;Standard Kotlin &lt;br&gt;Library&lt;/font&gt;&lt;br&gt;&lt;/font&gt;" style="rounded=1;whiteSpace=wrap;html=1;fillColor=#FFE68A;strokeColor=#000000;strokeWidth=2;arcSize=20;fillStyle=solid;shadow=0;sketch=1;curveFitting=1;jiggle=2;" parent="1" vertex="1">
          <mxGeometry x="827" y="306.25" width="420" height="145" as="geometry" />
        </mxCell>
        <mxCell id="rl2Ivr2va-oDCX-Vl3rw-15" value="&lt;font style=&quot;font-size: 40px;&quot;&gt;&lt;font face=&quot;Comic Sans MS&quot;&gt;Kotlinx&lt;/font&gt;&lt;br&gt;&lt;/font&gt;" style="rounded=1;whiteSpace=wrap;html=1;fillColor=#D79B00;strokeColor=#000000;strokeWidth=2;arcSize=20;fillStyle=solid;shadow=0;sketch=1;curveFitting=1;jiggle=2;" parent="1" vertex="1">
          <mxGeometry x="827" y="451.25" width="420" height="72.5" as="geometry" />
        </mxCell>
        <mxCell id="rl2Ivr2va-oDCX-Vl3rw-16" value="&lt;font style=&quot;&quot;&gt;&lt;font color=&quot;#000000&quot; face=&quot;Comic Sans MS&quot;&gt;&lt;span style=&quot;font-size: 40px;&quot;&gt;Adapter&lt;/span&gt;&lt;/font&gt;&lt;br&gt;&lt;/font&gt;" style="rounded=1;whiteSpace=wrap;html=1;fillColor=#F19C99;strokeColor=#000000;strokeWidth=2;arcSize=20;fillStyle=solid;shadow=0;sketch=1;curveFitting=1;jiggle=2;fontColor=#ffffff;" parent="1" vertex="1">
          <mxGeometry x="144" y="40" width="248" height="110" as="geometry" />
        </mxCell>
        <mxCell id="rl2Ivr2va-oDCX-Vl3rw-17" value="" style="endArrow=classic;html=1;rounded=0;strokeWidth=6;exitX=0.5;exitY=1;exitDx=0;exitDy=0;entryX=0.5;entryY=0;entryDx=0;entryDy=0;targetPerimeterSpacing=0;" parent="1" source="rl2Ivr2va-oDCX-Vl3rw-12" target="rl2Ivr2va-oDCX-Vl3rw-16" edge="1">
          <mxGeometry width="50" height="50" relative="1" as="geometry">
            <mxPoint x="340" y="-20" as="sourcePoint" />
            <mxPoint x="270" y="70" as="targetPoint" />
          </mxGeometry>
        </mxCell>
        <mxCell id="rl2Ivr2va-oDCX-Vl3rw-18" value="" style="endArrow=classic;html=1;rounded=0;strokeWidth=6;exitX=0.5;exitY=1;exitDx=0;exitDy=0;entryX=0.75;entryY=0;entryDx=0;entryDy=0;targetPerimeterSpacing=0;" parent="1" source="rl2Ivr2va-oDCX-Vl3rw-10" target="rl2Ivr2va-oDCX-Vl3rw-1" edge="1">
          <mxGeometry width="50" height="50" relative="1" as="geometry">
            <mxPoint x="611" as="sourcePoint" />
            <mxPoint x="611" y="163" as="targetPoint" />
          </mxGeometry>
        </mxCell>
        <mxCell id="rl2Ivr2va-oDCX-Vl3rw-19" value="" style="endArrow=classic;html=1;rounded=0;strokeWidth=6;exitX=0.5;exitY=1;exitDx=0;exitDy=0;entryX=0.25;entryY=0;entryDx=0;entryDy=0;targetPerimeterSpacing=0;" parent="1" source="rl2Ivr2va-oDCX-Vl3rw-16" target="rl2Ivr2va-oDCX-Vl3rw-1" edge="1">
          <mxGeometry width="50" height="50" relative="1" as="geometry">
            <mxPoint x="558" y="-80" as="sourcePoint" />
            <mxPoint x="559" y="280" as="targetPoint" />
          </mxGeometry>
        </mxCell>
        <mxCell id="rl2Ivr2va-oDCX-Vl3rw-20" value="" style="endArrow=classic;html=1;rounded=0;strokeWidth=6;exitX=1;exitY=0.5;exitDx=0;exitDy=0;entryX=0;entryY=0.75;entryDx=0;entryDy=0;targetPerimeterSpacing=0;" parent="1" source="rl2Ivr2va-oDCX-Vl3rw-1" target="rl2Ivr2va-oDCX-Vl3rw-13" edge="1">
          <mxGeometry width="50" height="50" relative="1" as="geometry">
            <mxPoint x="568" y="-70" as="sourcePoint" />
            <mxPoint x="569" y="290" as="targetPoint" />
          </mxGeometry>
        </mxCell>
        <mxCell id="rl2Ivr2va-oDCX-Vl3rw-21" value="" style="endArrow=classic;html=1;rounded=0;strokeWidth=6;exitX=0.75;exitY=1;exitDx=0;exitDy=0;entryX=0.5;entryY=0;entryDx=0;entryDy=0;targetPerimeterSpacing=0;edgeStyle=orthogonalEdgeStyle;curved=1;" parent="1" source="rl2Ivr2va-oDCX-Vl3rw-1" target="rl2Ivr2va-oDCX-Vl3rw-3" edge="1">
          <mxGeometry width="50" height="50" relative="1" as="geometry">
            <mxPoint x="714" y="425" as="sourcePoint" />
            <mxPoint x="837" y="425" as="targetPoint" />
          </mxGeometry>
        </mxCell>
        <mxCell id="rl2Ivr2va-oDCX-Vl3rw-22" value="" style="endArrow=classic;html=1;rounded=0;strokeWidth=6;exitX=0.5;exitY=1;exitDx=0;exitDy=0;targetPerimeterSpacing=0;entryX=0.5;entryY=0;entryDx=0;entryDy=0;" parent="1" source="rl2Ivr2va-oDCX-Vl3rw-1" target="agDyX-ZiO_sCVZXWrItU-8" edge="1">
          <mxGeometry width="50" height="50" relative="1" as="geometry">
            <mxPoint x="569" y="560" as="sourcePoint" />
            <mxPoint x="414" y="740" as="targetPoint" />
          </mxGeometry>
        </mxCell>
        <mxCell id="rl2Ivr2va-oDCX-Vl3rw-23" value="" style="endArrow=classic;html=1;rounded=0;strokeWidth=6;exitX=0.25;exitY=1;exitDx=0;exitDy=0;entryX=0.5;entryY=0;entryDx=0;entryDy=0;targetPerimeterSpacing=0;edgeStyle=orthogonalEdgeStyle;curved=1;" parent="1" source="rl2Ivr2va-oDCX-Vl3rw-1" target="rl2Ivr2va-oDCX-Vl3rw-5" edge="1">
          <mxGeometry width="50" height="50" relative="1" as="geometry">
            <mxPoint x="569" y="560" as="sourcePoint" />
            <mxPoint x="811" y="691" as="targetPoint" />
          </mxGeometry>
        </mxCell>
        <mxCell id="rl2Ivr2va-oDCX-Vl3rw-24" value="" style="endArrow=classic;html=1;rounded=0;strokeWidth=6;entryX=0;entryY=0.5;entryDx=0;entryDy=0;targetPerimeterSpacing=0;edgeStyle=orthogonalEdgeStyle;exitX=0.25;exitY=0;exitDx=0;exitDy=0;" parent="1" source="rl2Ivr2va-oDCX-Vl3rw-5" target="rl2Ivr2va-oDCX-Vl3rw-16" edge="1">
          <mxGeometry width="50" height="50" relative="1" as="geometry">
            <mxPoint x="-442" y="260" as="sourcePoint" />
            <mxPoint x="-128" y="95" as="targetPoint" />
          </mxGeometry>
        </mxCell>
        <mxCell id="agDyX-ZiO_sCVZXWrItU-6" value="&lt;span style=&quot;font-family: &amp;quot;Comic Sans MS&amp;quot;;&quot;&gt;&lt;font style=&quot;font-size: 45px;&quot;&gt;&lt;b&gt;Common&lt;/b&gt;&lt;/font&gt;&lt;/span&gt;" style="text;html=1;align=center;verticalAlign=middle;whiteSpace=wrap;rounded=0;fontSize=50;" parent="1" vertex="1">
          <mxGeometry x="1061" y="510" width="319" height="140" as="geometry" />
        </mxCell>
        <mxCell id="agDyX-ZiO_sCVZXWrItU-8" value="&lt;font face=&quot;Comic Sans MS&quot; style=&quot;&quot;&gt;&lt;font style=&quot;font-size: 45px;&quot;&gt;&lt;font style=&quot;font-size: 45px;&quot; data-font-src=&quot;https://fonts.googleapis.com/css?family=Kalam&quot;&gt;&lt;font style=&quot;font-size: 45px;&quot;&gt;AppleMain&lt;br&gt;&lt;/font&gt;&lt;/font&gt;&lt;font style=&quot;font-size: 45px;&quot; color=&quot;#ff0080&quot;&gt;&lt;b style=&quot;&quot;&gt;&lt;i style=&quot;&quot;&gt;actual&lt;/i&gt;&lt;br&gt;&lt;/b&gt;&lt;/font&gt;&lt;/font&gt;&lt;font size=&quot;1&quot; color=&quot;#67ab9f&quot; style=&quot;&quot;&gt;&lt;b style=&quot;&quot;&gt;&lt;i style=&quot;font-size: 45px;&quot;&gt;expect&lt;/i&gt;&lt;/b&gt;&lt;/font&gt;&lt;/font&gt;" style="rounded=1;whiteSpace=wrap;html=1;fillColor=#FFD966;strokeColor=#000000;strokeWidth=2;arcSize=20;fillStyle=solid;shadow=0;sketch=1;curveFitting=1;jiggle=2;" parent="1" vertex="1">
          <mxGeometry x="246" y="740" width="336" height="200" as="geometry" />
        </mxCell>
        <mxCell id="agDyX-ZiO_sCVZXWrItU-9" value="&lt;font style=&quot;&quot;&gt;&lt;font face=&quot;Comic Sans MS&quot;&gt;&lt;font style=&quot;font-size: 40px;&quot; data-font-src=&quot;https://fonts.googleapis.com/css?family=Kalam&quot;&gt;MacosArm64Main&lt;br&gt;&lt;/font&gt;&lt;b style=&quot;&quot;&gt;&lt;i style=&quot;&quot;&gt;&lt;font color=&quot;#67ab9f&quot; style=&quot;font-size: 40px;&quot;&gt;actual&lt;/font&gt;&lt;/i&gt;&lt;/b&gt;&lt;/font&gt;&lt;br&gt;&lt;/font&gt;" style="rounded=1;whiteSpace=wrap;html=1;fillColor=#FFD966;strokeColor=#000000;strokeWidth=2;arcSize=20;fillStyle=solid;shadow=0;sketch=1;curveFitting=1;jiggle=2;" parent="1" vertex="1">
          <mxGeometry x="20" y="1122" width="394" height="200" as="geometry" />
        </mxCell>
        <mxCell id="agDyX-ZiO_sCVZXWrItU-13" value="" style="endArrow=classic;html=1;rounded=0;strokeWidth=6;targetPerimeterSpacing=0;edgeStyle=orthogonalEdgeStyle;curved=1;entryX=0.5;entryY=0;entryDx=0;entryDy=0;exitX=0.25;exitY=1;exitDx=0;exitDy=0;" parent="1" source="agDyX-ZiO_sCVZXWrItU-8" target="agDyX-ZiO_sCVZXWrItU-9" edge="1">
          <mxGeometry width="50" height="50" relative="1" as="geometry">
            <mxPoint x="569" y="560" as="sourcePoint" />
            <mxPoint x="350" y="1070" as="targetPoint" />
            <Array as="points">
              <mxPoint x="330" y="1000" />
              <mxPoint x="217" y="1000" />
            </Array>
          </mxGeometry>
        </mxCell>
        <mxCell id="agDyX-ZiO_sCVZXWrItU-15" value="&lt;font style=&quot;font-size: 40px;&quot;&gt;&lt;font face=&quot;Comic Sans MS&quot;&gt;Other&amp;nbsp;&lt;/font&gt;&lt;/font&gt;&lt;div&gt;&lt;font style=&quot;font-size: 40px;&quot;&gt;&lt;font face=&quot;Comic Sans MS&quot;&gt;Apple targets&lt;br&gt;&lt;/font&gt;&lt;i&gt;&lt;font face=&quot;Comic Sans MS&quot; color=&quot;#67ab9f&quot;&gt;&lt;b&gt;actual&lt;/b&gt;&lt;/font&gt;&lt;/i&gt;&lt;/font&gt;&lt;/div&gt;" style="rounded=1;whiteSpace=wrap;html=1;fillColor=#FFD966;strokeColor=#000000;strokeWidth=2;arcSize=20;fillStyle=solid;shadow=0;sketch=1;curveFitting=1;jiggle=2;" parent="1" vertex="1">
          <mxGeometry x="463" y="1122" width="340" height="200" as="geometry" />
        </mxCell>
        <mxCell id="agDyX-ZiO_sCVZXWrItU-16" value="" style="endArrow=classic;html=1;rounded=0;strokeWidth=6;exitX=0.75;exitY=1;exitDx=0;exitDy=0;targetPerimeterSpacing=0;edgeStyle=orthogonalEdgeStyle;curved=1;entryX=0.5;entryY=0;entryDx=0;entryDy=0;" parent="1" source="agDyX-ZiO_sCVZXWrItU-8" target="agDyX-ZiO_sCVZXWrItU-15" edge="1">
          <mxGeometry width="50" height="50" relative="1" as="geometry">
            <mxPoint x="424" y="950" as="sourcePoint" />
            <mxPoint x="227" y="1080" as="targetPoint" />
            <Array as="points">
              <mxPoint x="498" y="1010" />
              <mxPoint x="633" y="1010" />
            </Array>
          </mxGeometry>
        </mxCell>
        <mxCell id="agDyX-ZiO_sCVZXWrItU-17" value="&lt;font style=&quot;&quot;&gt;&lt;font style=&quot;font-size: 35px;&quot; face=&quot;Comic Sans MS&quot;&gt;Apple&lt;/font&gt;&lt;br&gt;&lt;/font&gt;" style="rounded=1;whiteSpace=wrap;html=1;fillColor=#FFB366;strokeColor=#36393D;strokeWidth=2;arcSize=20;fillStyle=solid;shadow=0;sketch=1;curveFitting=1;jiggle=2;" parent="1" vertex="1">
          <mxGeometry x="-11" y="1292" width="120" height="70" as="geometry" />
        </mxCell>
        <mxCell id="agDyX-ZiO_sCVZXWrItU-19" value="&lt;font style=&quot;&quot;&gt;&lt;font style=&quot;font-size: 35px;&quot; face=&quot;Comic Sans MS&quot;&gt;Apple&lt;/font&gt;&lt;br&gt;&lt;/font&gt;" style="rounded=1;whiteSpace=wrap;html=1;fillColor=#FFB366;strokeColor=#36393D;strokeWidth=2;arcSize=20;fillStyle=solid;shadow=0;sketch=1;curveFitting=1;jiggle=2;" parent="1" vertex="1">
          <mxGeometry x="440" y="1292" width="120" height="70" as="geometry" />
        </mxCell>
        <mxCell id="agDyX-ZiO_sCVZXWrItU-25" value="&lt;span style=&quot;font-family: &amp;quot;Comic Sans MS&amp;quot;;&quot;&gt;&lt;font style=&quot;font-size: 45px;&quot;&gt;&lt;b&gt;Intermediary&lt;/b&gt;&lt;/font&gt;&lt;/span&gt;" style="text;html=1;align=center;verticalAlign=middle;whiteSpace=wrap;rounded=0;fontSize=50;" parent="1" vertex="1">
          <mxGeometry x="1010" y="921" width="320" height="140" as="geometry" />
        </mxCell>
        <mxCell id="agDyX-ZiO_sCVZXWrItU-27" value="&lt;span style=&quot;font-family: &amp;quot;Comic Sans MS&amp;quot;;&quot;&gt;&lt;font style=&quot;font-size: 45px;&quot;&gt;&lt;b&gt;Specific&lt;/b&gt;&lt;/font&gt;&lt;/span&gt;" style="text;html=1;align=center;verticalAlign=middle;whiteSpace=wrap;rounded=0;fontSize=50;" parent="1" vertex="1">
          <mxGeometry x="1061" y="1340" width="320" height="140" as="geometry" />
        </mxCell>
      </root>
    </mxGraphModel>
  </diagram>
</mxfile>
